<mxfile host="65bd71144e">
    <diagram id="8TEd3o8tfnUCQelQGDyB" name="ページ1">
        <mxGraphModel dx="562" dy="1375" grid="1" gridSize="10" guides="1" tooltips="1" connect="1" arrows="1" fold="1" page="1" pageScale="1" pageWidth="1169" pageHeight="827" background="#ffffff" math="0" shadow="0">
            <root>
                <mxCell id="0"/>
                <mxCell id="1" parent="0"/>
                <mxCell id="135" value="" style="rounded=0;whiteSpace=wrap;html=1;strokeColor=none;" parent="1" vertex="1">
                    <mxGeometry x="40" y="-200" width="2080" height="1030" as="geometry"/>
                </mxCell>
                <mxCell id="49" value="気温" style="text;html=1;align=center;verticalAlign=middle;resizable=0;points=[];autosize=1;strokeColor=none;fillColor=none;fontSize=16;" parent="1" vertex="1">
                    <mxGeometry x="200" y="660" width="60" height="30" as="geometry"/>
                </mxCell>
                <mxCell id="82" value="" style="rounded=0;whiteSpace=wrap;html=1;fontSize=18;fillColor=none;dashed=1;dashPattern=8 8;strokeWidth=2;movable=0;resizable=0;rotatable=0;deletable=0;editable=0;locked=1;connectable=0;" parent="1" vertex="1">
                    <mxGeometry x="60" y="500" width="710" height="300" as="geometry"/>
                </mxCell>
                <mxCell id="56" style="edgeStyle=elbowEdgeStyle;rounded=0;html=1;entryX=0;entryY=0.25;entryDx=0;entryDy=0;entryPerimeter=0;fontSize=16;startArrow=none;startFill=0;endArrow=none;endFill=0;" parent="1" target="19" edge="1">
                    <mxGeometry relative="1" as="geometry">
                        <Array as="points">
                            <mxPoint x="1080" y="300"/>
                        </Array>
                        <mxPoint x="550" y="280" as="sourcePoint"/>
                    </mxGeometry>
                </mxCell>
                <mxCell id="18" style="edgeStyle=elbowEdgeStyle;rounded=0;html=1;fontSize=18;endArrow=none;endFill=0;startArrow=none;startFill=0;" parent="1" source="17" edge="1">
                    <mxGeometry relative="1" as="geometry">
                        <mxPoint x="550" y="250" as="targetPoint"/>
                        <Array as="points">
                            <mxPoint x="550" y="230"/>
                        </Array>
                    </mxGeometry>
                </mxCell>
                <mxCell id="17" value="2段目分離保護&lt;div&gt;タイマー&lt;/div&gt;" style="rounded=0;whiteSpace=wrap;html=1;fontSize=18;fillColor=default;" parent="1" vertex="1">
                    <mxGeometry x="580" y="160" width="180" height="60" as="geometry"/>
                </mxCell>
                <mxCell id="36" style="edgeStyle=elbowEdgeStyle;rounded=0;html=1;exitX=1;exitY=0.5;exitDx=0;exitDy=0;exitPerimeter=0;entryX=0;entryY=0.75;entryDx=0;entryDy=0;entryPerimeter=0;fontSize=16;startArrow=none;startFill=0;endArrow=none;endFill=0;" parent="1" source="19" target="35" edge="1">
                    <mxGeometry relative="1" as="geometry">
                        <Array as="points">
                            <mxPoint x="1280" y="330"/>
                            <mxPoint x="1210" y="320"/>
                            <mxPoint x="1150" y="320"/>
                        </Array>
                    </mxGeometry>
                </mxCell>
                <mxCell id="19" value="" style="verticalLabelPosition=bottom;shadow=0;dashed=0;align=center;html=1;verticalAlign=top;shape=mxgraph.electrical.logic_gates.logic_gate;operation=and;dashPattern=8 8;fontSize=18;fillColor=none;" parent="1" vertex="1">
                    <mxGeometry x="1110" y="310" width="100" height="60" as="geometry"/>
                </mxCell>
                <mxCell id="21" value="&lt;font style=&quot;font-size: 16px;&quot;&gt;離床検知&lt;/font&gt;" style="text;html=1;align=center;verticalAlign=middle;resizable=0;points=[];autosize=1;strokeColor=none;fillColor=none;fontSize=18;" parent="1" vertex="1">
                    <mxGeometry x="550" y="240" width="90" height="40" as="geometry"/>
                </mxCell>
                <mxCell id="34" style="edgeStyle=elbowEdgeStyle;rounded=0;html=1;fontSize=16;startArrow=none;startFill=0;endArrow=oval;endFill=1;" parent="1" source="23" edge="1">
                    <mxGeometry relative="1" as="geometry">
                        <mxPoint x="550" y="190" as="targetPoint"/>
                        <Array as="points">
                            <mxPoint x="550" y="150"/>
                        </Array>
                    </mxGeometry>
                </mxCell>
                <mxCell id="23" value="2段目強制分離&lt;br&gt;タイマー" style="rounded=0;whiteSpace=wrap;html=1;fontSize=18;fillColor=default;" parent="1" vertex="1">
                    <mxGeometry x="580" y="80" width="180" height="60" as="geometry"/>
                </mxCell>
                <mxCell id="27" style="edgeStyle=elbowEdgeStyle;rounded=0;html=1;exitX=1;exitY=0.5;exitDx=0;exitDy=0;exitPerimeter=0;fontSize=16;startArrow=none;startFill=0;endArrow=none;endFill=0;" parent="1" source="26" edge="1">
                    <mxGeometry relative="1" as="geometry">
                        <Array as="points">
                            <mxPoint x="550" y="360"/>
                        </Array>
                        <mxPoint x="550" y="250" as="targetPoint"/>
                    </mxGeometry>
                </mxCell>
                <mxCell id="26" value="" style="verticalLabelPosition=bottom;shadow=0;dashed=0;align=center;html=1;verticalAlign=top;shape=mxgraph.electrical.logic_gates.schmitt_trigger;fontSize=16;fillColor=default;" parent="1" vertex="1">
                    <mxGeometry x="400" y="390" width="100" height="60" as="geometry"/>
                </mxCell>
                <mxCell id="29" style="edgeStyle=elbowEdgeStyle;rounded=0;html=1;entryX=0;entryY=0.5;entryDx=0;entryDy=0;entryPerimeter=0;fontSize=16;startArrow=none;startFill=0;endArrow=none;endFill=0;" parent="1" source="28" target="26" edge="1">
                    <mxGeometry relative="1" as="geometry"/>
                </mxCell>
                <mxCell id="28" value="" style="verticalLabelPosition=bottom;shadow=0;dashed=0;align=center;html=1;verticalAlign=top;shape=mxgraph.electrical.logic_gates.lowpass_filter;fontSize=16;fillColor=default;" parent="1" vertex="1">
                    <mxGeometry x="320" y="397" width="52" height="46" as="geometry"/>
                </mxCell>
                <mxCell id="31" style="edgeStyle=elbowEdgeStyle;rounded=0;html=1;exitX=1;exitY=0.5;exitDx=0;exitDy=0;exitPerimeter=0;entryX=0;entryY=0.5;entryDx=0;entryDy=0;entryPerimeter=0;fontSize=16;startArrow=none;startFill=0;endArrow=none;endFill=0;" parent="1" source="30" target="28" edge="1">
                    <mxGeometry relative="1" as="geometry"/>
                </mxCell>
                <mxCell id="30" value="" style="verticalLabelPosition=bottom;shadow=0;dashed=0;align=center;html=1;verticalAlign=top;shape=mxgraph.electrical.logic_gates.inverter_2;fontSize=16;fillColor=default;" parent="1" vertex="1">
                    <mxGeometry x="210" y="390" width="100" height="60" as="geometry"/>
                </mxCell>
                <mxCell id="33" style="edgeStyle=elbowEdgeStyle;rounded=0;html=1;entryX=0;entryY=0.5;entryDx=0;entryDy=0;entryPerimeter=0;fontSize=16;startArrow=none;startFill=0;endArrow=none;endFill=0;" parent="1" source="32" target="30" edge="1">
                    <mxGeometry relative="1" as="geometry"/>
                </mxCell>
                <mxCell id="32" value="フライトピン" style="rounded=1;whiteSpace=wrap;html=1;fontSize=16;fillColor=default;" parent="1" vertex="1">
                    <mxGeometry x="80" y="390" width="120" height="60" as="geometry"/>
                </mxCell>
                <mxCell id="39" style="edgeStyle=elbowEdgeStyle;rounded=0;html=1;exitX=1;exitY=0.5;exitDx=0;exitDy=0;exitPerimeter=0;entryX=0;entryY=0.75;entryDx=0;entryDy=0;entryPerimeter=0;fontSize=16;startArrow=none;startFill=0;endArrow=none;endFill=0;" parent="1" source="35" target="59" edge="1">
                    <mxGeometry relative="1" as="geometry">
                        <mxPoint x="1350" y="250" as="targetPoint"/>
                        <Array as="points">
                            <mxPoint x="1400" y="260"/>
                            <mxPoint x="1330" y="270"/>
                        </Array>
                    </mxGeometry>
                </mxCell>
                <mxCell id="35" value="" style="verticalLabelPosition=bottom;shadow=0;dashed=0;align=center;html=1;verticalAlign=top;shape=mxgraph.electrical.logic_gates.logic_gate;operation=and;dashPattern=8 8;fontSize=18;fillColor=none;" parent="1" vertex="1">
                    <mxGeometry x="1290" y="270" width="100" height="60" as="geometry"/>
                </mxCell>
                <mxCell id="46" style="edgeStyle=elbowEdgeStyle;rounded=0;html=1;fontSize=16;startArrow=none;startFill=0;endArrow=none;endFill=0;" parent="1" source="43" edge="1">
                    <mxGeometry relative="1" as="geometry">
                        <mxPoint x="300" y="620" as="targetPoint"/>
                        <Array as="points">
                            <mxPoint x="260" y="590"/>
                        </Array>
                    </mxGeometry>
                </mxCell>
                <mxCell id="43" value="気圧センサ" style="rounded=1;whiteSpace=wrap;html=1;fontSize=16;fillColor=default;" parent="1" vertex="1">
                    <mxGeometry x="80" y="560" width="120" height="60" as="geometry"/>
                </mxCell>
                <mxCell id="47" style="edgeStyle=elbowEdgeStyle;rounded=0;html=1;entryX=0;entryY=0.75;entryDx=0;entryDy=0;fontSize=16;startArrow=none;startFill=0;endArrow=none;endFill=0;" parent="1" source="44" target="45" edge="1">
                    <mxGeometry relative="1" as="geometry">
                        <Array as="points">
                            <mxPoint x="260" y="690"/>
                        </Array>
                    </mxGeometry>
                </mxCell>
                <mxCell id="44" value="サーミスタ" style="rounded=1;whiteSpace=wrap;html=1;fontSize=16;fillColor=default;" parent="1" vertex="1">
                    <mxGeometry x="80" y="660" width="120" height="60" as="geometry"/>
                </mxCell>
                <mxCell id="51" style="edgeStyle=elbowEdgeStyle;rounded=0;html=1;entryX=0;entryY=0.5;entryDx=0;entryDy=0;fontSize=16;startArrow=none;startFill=0;endArrow=none;endFill=0;" parent="1" source="45" target="50" edge="1">
                    <mxGeometry relative="1" as="geometry"/>
                </mxCell>
                <mxCell id="45" value="高度算出" style="rounded=0;whiteSpace=wrap;html=1;fontSize=16;fillColor=default;" parent="1" vertex="1">
                    <mxGeometry x="300" y="600" width="80" height="80" as="geometry"/>
                </mxCell>
                <mxCell id="48" value="気圧" style="text;html=1;align=center;verticalAlign=middle;resizable=0;points=[];autosize=1;strokeColor=none;fillColor=none;fontSize=16;" parent="1" vertex="1">
                    <mxGeometry x="200" y="560" width="60" height="30" as="geometry"/>
                </mxCell>
                <mxCell id="53" style="edgeStyle=elbowEdgeStyle;rounded=0;html=1;entryX=0;entryY=0.5;entryDx=0;entryDy=0;fontSize=16;startArrow=none;startFill=0;endArrow=none;endFill=0;" parent="1" source="50" target="52" edge="1">
                    <mxGeometry relative="1" as="geometry"/>
                </mxCell>
                <mxCell id="50" value="積分" style="rounded=0;whiteSpace=wrap;html=1;fontSize=16;fillColor=default;" parent="1" vertex="1">
                    <mxGeometry x="500" y="615" width="80" height="50" as="geometry"/>
                </mxCell>
                <mxCell id="57" style="edgeStyle=elbowEdgeStyle;rounded=0;html=1;entryX=0;entryY=0.75;entryDx=0;entryDy=0;entryPerimeter=0;fontSize=16;startArrow=none;startFill=0;endArrow=none;endFill=0;" parent="1" source="52" target="19" edge="1">
                    <mxGeometry relative="1" as="geometry">
                        <Array as="points">
                            <mxPoint x="920" y="500"/>
                        </Array>
                    </mxGeometry>
                </mxCell>
                <mxCell id="52" value="&amp;lt;= 0" style="rounded=0;whiteSpace=wrap;html=1;fontSize=16;fillColor=default;" parent="1" vertex="1">
                    <mxGeometry x="680" y="615" width="80" height="50" as="geometry"/>
                </mxCell>
                <mxCell id="58" value="頂点検知" style="text;html=1;align=center;verticalAlign=middle;resizable=0;points=[];autosize=1;strokeColor=none;fillColor=none;fontSize=16;" parent="1" vertex="1">
                    <mxGeometry x="1180" y="310" width="90" height="30" as="geometry"/>
                </mxCell>
                <mxCell id="61" style="edgeStyle=elbowEdgeStyle;rounded=0;html=1;exitX=1;exitY=0.5;exitDx=0;exitDy=0;exitPerimeter=0;entryX=0;entryY=0.5;entryDx=0;entryDy=0;fontSize=16;startArrow=none;startFill=0;endArrow=none;endFill=0;" parent="1" target="60" edge="1">
                    <mxGeometry relative="1" as="geometry">
                        <mxPoint x="1530" y="235" as="sourcePoint"/>
                    </mxGeometry>
                </mxCell>
                <mxCell id="59" value="" style="verticalLabelPosition=bottom;shadow=0;dashed=0;align=center;html=1;verticalAlign=top;shape=mxgraph.electrical.logic_gates.logic_gate;operation=or;fontSize=16;fillColor=default;" parent="1" vertex="1">
                    <mxGeometry x="1430" y="205" width="100" height="60" as="geometry"/>
                </mxCell>
                <mxCell id="64" style="edgeStyle=elbowEdgeStyle;rounded=0;html=1;fontSize=16;startArrow=none;startFill=0;endArrow=block;endFill=1;endSize=11;startSize=6;targetPerimeterSpacing=0;strokeWidth=1;" parent="1" source="60" edge="1">
                    <mxGeometry relative="1" as="geometry">
                        <mxPoint x="1720" y="149.9999999999999" as="targetPoint"/>
                    </mxGeometry>
                </mxCell>
                <mxCell id="67" style="edgeStyle=elbowEdgeStyle;rounded=0;html=1;entryX=0;entryY=0.5;entryDx=0;entryDy=0;strokeWidth=1;fontSize=16;startArrow=none;startFill=0;endArrow=none;endFill=0;startSize=6;endSize=11;targetPerimeterSpacing=0;exitX=0.5;exitY=1;exitDx=0;exitDy=0;" parent="1" source="60" target="66" edge="1">
                    <mxGeometry relative="1" as="geometry">
                        <Array as="points">
                            <mxPoint x="1720" y="280"/>
                        </Array>
                    </mxGeometry>
                </mxCell>
                <mxCell id="60" value="リレー" style="rounded=0;whiteSpace=wrap;html=1;fontSize=16;fillColor=default;" parent="1" vertex="1">
                    <mxGeometry x="1680" y="205" width="80" height="60" as="geometry"/>
                </mxCell>
                <mxCell id="62" value="1段目分離信号" style="text;html=1;align=center;verticalAlign=middle;resizable=0;points=[];autosize=1;strokeColor=none;fillColor=none;fontSize=16;" parent="1" vertex="1">
                    <mxGeometry x="1520" y="205" width="130" height="30" as="geometry"/>
                </mxCell>
                <mxCell id="65" value="12 V" style="text;html=1;align=center;verticalAlign=middle;resizable=0;points=[];autosize=1;strokeColor=none;fillColor=none;fontSize=16;" parent="1" vertex="1">
                    <mxGeometry x="1690" y="125" width="60" height="30" as="geometry"/>
                </mxCell>
                <mxCell id="66" value="1段目減速装置放出機構" style="rounded=0;whiteSpace=wrap;html=1;fontSize=16;fillColor=default;" parent="1" vertex="1">
                    <mxGeometry x="1880" y="290" width="200" height="60" as="geometry"/>
                </mxCell>
                <mxCell id="68" value="" style="endArrow=none;dashed=1;html=1;rounded=0;strokeWidth=1;fontSize=16;startSize=6;endSize=11;targetPerimeterSpacing=0;" parent="1" edge="1">
                    <mxGeometry width="50" height="50" relative="1" as="geometry">
                        <mxPoint x="60" y="370" as="sourcePoint"/>
                        <mxPoint x="530" y="370" as="targetPoint"/>
                    </mxGeometry>
                </mxCell>
                <mxCell id="69" value="" style="endArrow=none;dashed=1;html=1;rounded=0;strokeWidth=1;fontSize=16;startSize=6;endSize=11;targetPerimeterSpacing=0;" parent="1" edge="1">
                    <mxGeometry width="50" height="50" relative="1" as="geometry">
                        <mxPoint x="530" y="370" as="sourcePoint"/>
                        <mxPoint x="530" y="-160" as="targetPoint"/>
                    </mxGeometry>
                </mxCell>
                <mxCell id="70" value="&lt;b&gt;&lt;font style=&quot;font-size: 18px;&quot;&gt;分離制御系&lt;/font&gt;&lt;/b&gt;" style="text;html=1;align=center;verticalAlign=middle;resizable=0;points=[];autosize=1;strokeColor=none;fillColor=none;fontSize=16;" parent="1" vertex="1">
                    <mxGeometry x="555" y="-140" width="110" height="40" as="geometry"/>
                </mxCell>
                <mxCell id="71" value="&lt;b&gt;センサ系&lt;/b&gt;" style="text;html=1;align=center;verticalAlign=middle;resizable=0;points=[];autosize=1;strokeColor=none;fillColor=none;fontSize=18;" parent="1" vertex="1">
                    <mxGeometry x="80" y="510" width="100" height="40" as="geometry"/>
                </mxCell>
                <mxCell id="72" value="" style="endArrow=none;dashed=1;html=1;rounded=0;strokeWidth=1;fontSize=16;startSize=6;endSize=11;targetPerimeterSpacing=0;" parent="1" edge="1">
                    <mxGeometry width="50" height="50" relative="1" as="geometry">
                        <mxPoint x="60" y="370" as="sourcePoint"/>
                        <mxPoint x="60" y="480" as="targetPoint"/>
                    </mxGeometry>
                </mxCell>
                <mxCell id="73" value="" style="endArrow=none;dashed=1;html=1;rounded=0;strokeWidth=1;fontSize=16;startSize=6;endSize=11;targetPerimeterSpacing=0;" parent="1" edge="1">
                    <mxGeometry width="50" height="50" relative="1" as="geometry">
                        <mxPoint x="880" y="480" as="sourcePoint"/>
                        <mxPoint x="60" y="480" as="targetPoint"/>
                    </mxGeometry>
                </mxCell>
                <mxCell id="74" value="落下検知" style="text;html=1;align=center;verticalAlign=middle;resizable=0;points=[];autosize=1;strokeColor=none;fillColor=none;fontSize=18;" parent="1" vertex="1">
                    <mxGeometry x="770" y="600" width="100" height="40" as="geometry"/>
                </mxCell>
                <mxCell id="75" value="垂直速度" style="text;html=1;align=center;verticalAlign=middle;resizable=0;points=[];autosize=1;strokeColor=none;fillColor=none;fontSize=18;" parent="1" vertex="1">
                    <mxGeometry x="580" y="600" width="100" height="40" as="geometry"/>
                </mxCell>
                <mxCell id="77" value="気圧高度" style="text;html=1;align=center;verticalAlign=middle;resizable=0;points=[];autosize=1;strokeColor=none;fillColor=none;fontSize=18;" parent="1" vertex="1">
                    <mxGeometry x="390" y="600" width="100" height="40" as="geometry"/>
                </mxCell>
                <mxCell id="81" value="" style="endArrow=none;dashed=1;html=1;strokeWidth=1;rounded=0;fontSize=18;startSize=6;endSize=11;targetPerimeterSpacing=0;" parent="1" edge="1">
                    <mxGeometry width="50" height="50" relative="1" as="geometry">
                        <mxPoint x="880" y="800" as="sourcePoint"/>
                        <mxPoint x="1800" y="800" as="targetPoint"/>
                    </mxGeometry>
                </mxCell>
                <mxCell id="93" value="1段目分離保護&lt;div&gt;タイマー&lt;/div&gt;" style="rounded=0;whiteSpace=wrap;html=1;fontSize=18;fillColor=default;" parent="1" vertex="1">
                    <mxGeometry x="580" width="180" height="60" as="geometry"/>
                </mxCell>
                <mxCell id="94" value="1段目強制分離&lt;br&gt;タイマー" style="rounded=0;whiteSpace=wrap;html=1;fontSize=18;fillColor=default;" parent="1" vertex="1">
                    <mxGeometry x="580" y="-85" width="180" height="60" as="geometry"/>
                </mxCell>
                <mxCell id="95" value="" style="endArrow=none;html=1;entryX=0;entryY=0.5;entryDx=0;entryDy=0;edgeStyle=elbowEdgeStyle;rounded=0;curved=0;startArrow=oval;startFill=1;" parent="1" target="93" edge="1">
                    <mxGeometry width="50" height="50" relative="1" as="geometry">
                        <mxPoint x="550" y="110" as="sourcePoint"/>
                        <mxPoint x="565" y="-70" as="targetPoint"/>
                        <Array as="points">
                            <mxPoint x="550" y="70"/>
                        </Array>
                    </mxGeometry>
                </mxCell>
                <mxCell id="96" value="" style="endArrow=none;html=1;entryX=0;entryY=0.5;entryDx=0;entryDy=0;edgeStyle=elbowEdgeStyle;rounded=0;curved=0;startArrow=oval;startFill=1;" parent="1" edge="1">
                    <mxGeometry width="50" height="50" relative="1" as="geometry">
                        <mxPoint x="550" y="30" as="sourcePoint"/>
                        <mxPoint x="580" y="-50" as="targetPoint"/>
                        <Array as="points">
                            <mxPoint x="550" y="-10"/>
                        </Array>
                    </mxGeometry>
                </mxCell>
                <mxCell id="97" value="" style="verticalLabelPosition=bottom;shadow=0;dashed=0;align=center;html=1;verticalAlign=top;shape=mxgraph.electrical.logic_gates.logic_gate;operation=and;dashPattern=8 8;fontSize=18;fillColor=none;" parent="1" vertex="1">
                    <mxGeometry x="1110" y="640" width="100" height="60" as="geometry"/>
                </mxCell>
                <mxCell id="98" value="" style="endArrow=oval;html=1;edgeStyle=elbowEdgeStyle;strokeColor=default;rounded=0;curved=0;endFill=1;" parent="1" edge="1">
                    <mxGeometry width="50" height="50" relative="1" as="geometry">
                        <mxPoint x="1110" y="655" as="sourcePoint"/>
                        <mxPoint x="960" y="280" as="targetPoint"/>
                        <Array as="points">
                            <mxPoint x="960" y="470"/>
                        </Array>
                    </mxGeometry>
                </mxCell>
                <mxCell id="99" value="" style="verticalLabelPosition=bottom;shadow=0;dashed=0;align=center;html=1;verticalAlign=top;shape=mxgraph.electrical.logic_gates.logic_gate;operation=and;dashPattern=8 8;fontSize=18;fillColor=none;" parent="1" vertex="1">
                    <mxGeometry x="1300" y="580" width="100" height="60" as="geometry"/>
                </mxCell>
                <mxCell id="100" value="" style="endArrow=none;html=1;exitX=1;exitY=0.5;exitDx=0;exitDy=0;exitPerimeter=0;entryX=0;entryY=0.75;entryDx=0;entryDy=0;entryPerimeter=0;edgeStyle=elbowEdgeStyle;rounded=0;curved=0;" parent="1" source="97" target="99" edge="1">
                    <mxGeometry width="50" height="50" relative="1" as="geometry">
                        <mxPoint x="1290" y="520" as="sourcePoint"/>
                        <mxPoint x="1340" y="470" as="targetPoint"/>
                        <Array as="points">
                            <mxPoint x="1280" y="650"/>
                        </Array>
                    </mxGeometry>
                </mxCell>
                <mxCell id="101" value="" style="endArrow=none;html=1;exitX=1;exitY=0.5;exitDx=0;exitDy=0;entryX=0;entryY=0.25;entryDx=0;entryDy=0;entryPerimeter=0;edgeStyle=elbowEdgeStyle;rounded=0;curved=0;" parent="1" source="17" target="99" edge="1">
                    <mxGeometry width="50" height="50" relative="1" as="geometry">
                        <mxPoint x="980" y="320" as="sourcePoint"/>
                        <mxPoint x="1160" y="410" as="targetPoint"/>
                        <Array as="points">
                            <mxPoint x="1000" y="400"/>
                        </Array>
                    </mxGeometry>
                </mxCell>
                <mxCell id="103" value="" style="verticalLabelPosition=bottom;shadow=0;dashed=0;align=center;html=1;verticalAlign=top;shape=mxgraph.electrical.logic_gates.logic_gate;operation=or;fontSize=16;fillColor=default;" parent="1" vertex="1">
                    <mxGeometry x="1430" y="520" width="100" height="60" as="geometry"/>
                </mxCell>
                <mxCell id="107" value="" style="endArrow=none;html=1;exitX=1;exitY=0.5;exitDx=0;exitDy=0;exitPerimeter=0;entryX=0;entryY=0.75;entryDx=0;entryDy=0;entryPerimeter=0;edgeStyle=elbowEdgeStyle;elbow=vertical;rounded=0;curved=0;" parent="1" source="99" target="103" edge="1">
                    <mxGeometry width="50" height="50" relative="1" as="geometry">
                        <mxPoint x="1380" y="590" as="sourcePoint"/>
                        <mxPoint x="1430" y="540" as="targetPoint"/>
                    </mxGeometry>
                </mxCell>
                <mxCell id="108" value="" style="endArrow=none;html=1;exitX=1;exitY=0.5;exitDx=0;exitDy=0;entryX=0;entryY=0.25;entryDx=0;entryDy=0;entryPerimeter=0;edgeStyle=elbowEdgeStyle;rounded=0;curved=0;" parent="1" source="23" target="103" edge="1">
                    <mxGeometry width="50" height="50" relative="1" as="geometry">
                        <mxPoint x="1070" y="370" as="sourcePoint"/>
                        <mxPoint x="1120" y="320" as="targetPoint"/>
                        <Array as="points">
                            <mxPoint x="1040" y="330"/>
                        </Array>
                    </mxGeometry>
                </mxCell>
                <mxCell id="109" value="&lt;font style=&quot;font-size: 15px; color: rgb(0, 0, 0);&quot;&gt;2段目分離許可&lt;/font&gt;" style="text;html=1;align=center;verticalAlign=middle;resizable=0;points=[];autosize=1;strokeColor=none;fillColor=none;" parent="1" vertex="1">
                    <mxGeometry x="760" y="160" width="120" height="30" as="geometry"/>
                </mxCell>
                <mxCell id="110" value="&lt;font style=&quot;font-size: 15px; color: rgb(0, 0, 0);&quot;&gt;2段目強制分離&lt;/font&gt;" style="text;html=1;align=center;verticalAlign=middle;resizable=0;points=[];autosize=1;strokeColor=none;fillColor=none;" parent="1" vertex="1">
                    <mxGeometry x="760" y="80" width="120" height="30" as="geometry"/>
                </mxCell>
                <mxCell id="111" value="" style="endArrow=none;html=1;exitX=1;exitY=0.5;exitDx=0;exitDy=0;entryX=0;entryY=0.25;entryDx=0;entryDy=0;entryPerimeter=0;edgeStyle=elbowEdgeStyle;rounded=0;curved=0;" parent="1" source="93" target="35" edge="1">
                    <mxGeometry width="50" height="50" relative="1" as="geometry">
                        <mxPoint x="970" y="90" as="sourcePoint"/>
                        <mxPoint x="1020" y="40" as="targetPoint"/>
                        <Array as="points">
                            <mxPoint x="1280" y="160"/>
                        </Array>
                    </mxGeometry>
                </mxCell>
                <mxCell id="112" value="&lt;font style=&quot;font-size: 15px; color: rgb(0, 0, 0);&quot;&gt;1段目分離許可&lt;/font&gt;" style="text;html=1;align=center;verticalAlign=middle;resizable=0;points=[];autosize=1;strokeColor=none;fillColor=none;" parent="1" vertex="1">
                    <mxGeometry x="760" width="120" height="30" as="geometry"/>
                </mxCell>
                <mxCell id="113" value="&lt;font style=&quot;font-size: 15px; color: rgb(0, 0, 0);&quot;&gt;1段目強制分離&lt;/font&gt;" style="text;html=1;align=center;verticalAlign=middle;resizable=0;points=[];autosize=1;strokeColor=none;fillColor=none;" parent="1" vertex="1">
                    <mxGeometry x="760" y="-85" width="120" height="30" as="geometry"/>
                </mxCell>
                <mxCell id="114" value="" style="endArrow=none;html=1;exitX=1;exitY=0.5;exitDx=0;exitDy=0;entryX=0;entryY=0.25;entryDx=0;entryDy=0;entryPerimeter=0;edgeStyle=elbowEdgeStyle;rounded=0;curved=0;" parent="1" source="94" target="59" edge="1">
                    <mxGeometry width="50" height="50" relative="1" as="geometry">
                        <mxPoint x="1040" y="90" as="sourcePoint"/>
                        <mxPoint x="1090" y="40" as="targetPoint"/>
                        <Array as="points">
                            <mxPoint x="1400" y="90"/>
                        </Array>
                    </mxGeometry>
                </mxCell>
                <mxCell id="115" style="edgeStyle=elbowEdgeStyle;rounded=0;html=1;fontSize=16;startArrow=none;startFill=0;endArrow=block;endFill=1;endSize=11;startSize=6;targetPerimeterSpacing=0;strokeWidth=1;" parent="1" source="117" edge="1">
                    <mxGeometry relative="1" as="geometry">
                        <mxPoint x="1720" y="467.9999999999999" as="targetPoint"/>
                    </mxGeometry>
                </mxCell>
                <mxCell id="117" value="リレー" style="rounded=0;whiteSpace=wrap;html=1;fontSize=16;fillColor=default;" parent="1" vertex="1">
                    <mxGeometry x="1680" y="528.75" width="80" height="42.5" as="geometry"/>
                </mxCell>
                <mxCell id="118" value="12 V" style="text;html=1;align=center;verticalAlign=middle;resizable=0;points=[];autosize=1;strokeColor=none;fillColor=none;fontSize=16;" parent="1" vertex="1">
                    <mxGeometry x="1690" y="443" width="60" height="30" as="geometry"/>
                </mxCell>
                <mxCell id="120" value="2段目減速装置放出機構" style="rounded=0;whiteSpace=wrap;html=1;fontSize=16;fillColor=default;" parent="1" vertex="1">
                    <mxGeometry x="1880" y="605.5" width="200" height="60" as="geometry"/>
                </mxCell>
                <mxCell id="121" value="" style="endArrow=none;html=1;entryX=0.5;entryY=1;entryDx=0;entryDy=0;exitX=0;exitY=0.5;exitDx=0;exitDy=0;edgeStyle=orthogonalEdgeStyle;rounded=0;curved=0;" parent="1" source="120" target="117" edge="1">
                    <mxGeometry width="50" height="50" relative="1" as="geometry">
                        <mxPoint x="1840" y="645.5" as="sourcePoint"/>
                        <mxPoint x="1820" y="565.5" as="targetPoint"/>
                    </mxGeometry>
                </mxCell>
                <mxCell id="125" value="" style="endArrow=none;html=1;exitX=1;exitY=0.5;exitDx=0;exitDy=0;exitPerimeter=0;entryX=0;entryY=0.5;entryDx=0;entryDy=0;" parent="1" source="103" target="117" edge="1">
                    <mxGeometry width="50" height="50" relative="1" as="geometry">
                        <mxPoint x="1580" y="570" as="sourcePoint"/>
                        <mxPoint x="1670" y="550" as="targetPoint"/>
                    </mxGeometry>
                </mxCell>
                <mxCell id="126" value="2段目分離信号" style="text;html=1;align=center;verticalAlign=middle;resizable=0;points=[];autosize=1;strokeColor=none;fillColor=none;fontSize=16;" parent="1" vertex="1">
                    <mxGeometry x="1520" y="520" width="130" height="30" as="geometry"/>
                </mxCell>
                <mxCell id="127" value="" style="endArrow=none;dashed=1;html=1;strokeWidth=1;rounded=0;fontSize=18;startSize=6;endSize=11;targetPerimeterSpacing=0;" parent="1" edge="1">
                    <mxGeometry width="50" height="50" relative="1" as="geometry">
                        <mxPoint x="880" y="480" as="sourcePoint"/>
                        <mxPoint x="880" y="800" as="targetPoint"/>
                    </mxGeometry>
                </mxCell>
                <mxCell id="128" value="&amp;lt;= 100 m" style="rounded=0;whiteSpace=wrap;html=1;fontSize=16;fillColor=default;" parent="1" vertex="1">
                    <mxGeometry x="680" y="720" width="80" height="50" as="geometry"/>
                </mxCell>
                <mxCell id="129" value="" style="endArrow=none;html=1;exitX=0;exitY=0.5;exitDx=0;exitDy=0;edgeStyle=elbowEdgeStyle;rounded=0;curved=0;" parent="1" source="128" edge="1">
                    <mxGeometry width="50" height="50" relative="1" as="geometry">
                        <mxPoint x="640" y="680" as="sourcePoint"/>
                        <mxPoint x="440" y="640" as="targetPoint"/>
                        <Array as="points">
                            <mxPoint x="440" y="690"/>
                        </Array>
                    </mxGeometry>
                </mxCell>
                <mxCell id="130" style="edgeStyle=elbowEdgeStyle;html=1;entryX=0;entryY=0.75;entryDx=0;entryDy=0;entryPerimeter=0;endArrow=none;endFill=0;rounded=0;curved=0;" parent="1" source="128" target="97" edge="1">
                    <mxGeometry relative="1" as="geometry">
                        <Array as="points">
                            <mxPoint x="960" y="710"/>
                        </Array>
                    </mxGeometry>
                </mxCell>
                <mxCell id="132" value="&lt;font style=&quot;color: rgb(0, 0, 0);&quot;&gt;指定高度&lt;/font&gt;&lt;div&gt;&lt;font style=&quot;color: rgb(0, 0, 0);&quot;&gt;到達&lt;/font&gt;&lt;/div&gt;" style="text;html=1;align=center;verticalAlign=middle;resizable=0;points=[];autosize=1;strokeColor=none;fillColor=none;fontSize=16;" parent="1" vertex="1">
                    <mxGeometry x="1180" y="620" width="90" height="50" as="geometry"/>
                </mxCell>
                <mxCell id="133" value="" style="endArrow=none;dashed=1;html=1;rounded=0;strokeWidth=1;fontSize=16;startSize=6;endSize=11;targetPerimeterSpacing=0;" parent="1" edge="1">
                    <mxGeometry width="50" height="50" relative="1" as="geometry">
                        <mxPoint x="1800" y="-160" as="sourcePoint"/>
                        <mxPoint x="530" y="-160" as="targetPoint"/>
                    </mxGeometry>
                </mxCell>
                <mxCell id="134" value="" style="endArrow=none;dashed=1;html=1;rounded=0;strokeWidth=1;fontSize=16;startSize=6;endSize=11;targetPerimeterSpacing=0;" parent="1" edge="1">
                    <mxGeometry width="50" height="50" relative="1" as="geometry">
                        <mxPoint x="1800" y="800" as="sourcePoint"/>
                        <mxPoint x="1800" y="-160" as="targetPoint"/>
                    </mxGeometry>
                </mxCell>
            </root>
        </mxGraphModel>
    </diagram>
</mxfile>